<?xml version="1.0" encoding="UTF-8" standalone="no"?>
<!-- Created with Inkscape (http://www.inkscape.org/) -->

<svg
   xmlns:dc="http://purl.org/dc/elements/1.1/"
   xmlns:cc="http://creativecommons.org/ns#"
   xmlns:rdf="http://www.w3.org/1999/02/22-rdf-syntax-ns#"
   xmlns:svg="http://www.w3.org/2000/svg"
   xmlns="http://www.w3.org/2000/svg"
   xmlns:xlink="http://www.w3.org/1999/xlink"
   xmlns:sodipodi="http://sodipodi.sourceforge.net/DTD/sodipodi-0.dtd"
   xmlns:inkscape="http://www.inkscape.org/namespaces/inkscape"
   width="382.9675"
   height="382.5368"
   viewBox="0 0 101.32682 101.21287"
   version="1.1"
   id="svg9593"
   inkscape:version="0.92.3 (2405546, 2018-03-11)"
   sodipodi:docname="bugjaeger_logo_blue_outline.svg">
  <defs
     id="defs9587">
    <linearGradient
       gradientTransform="translate(1029.6674,-235.21163)"
       inkscape:collect="always"
       xlink:href="#linearGradient6164"
       id="linearGradient6166"
       x1="-975.25336"
       y1="449.05685"
       x2="-873.92657"
       y2="449.05685"
       gradientUnits="userSpaceOnUse" />
    <linearGradient
       inkscape:collect="always"
       id="linearGradient6164">
      <stop
         style="stop-color:#ffffff;stop-opacity:1;"
         offset="0"
         id="stop6160" />
      <stop
         style="stop-color:#ffffff;stop-opacity:0;"
         offset="1"
         id="stop6162" />
    </linearGradient>
  </defs>
  <sodipodi:namedview
     id="base"
     pagecolor="#ffffff"
     bordercolor="#666666"
     borderopacity="1.0"
     inkscape:pageopacity="0.0"
     inkscape:pageshadow="2"
     inkscape:zoom="0.98994949"
     inkscape:cx="-237.13082"
     inkscape:cy="276.45069"
     inkscape:document-units="px"
     inkscape:current-layer="layer1"
     showgrid="false"
     units="px"
     inkscape:window-width="1920"
     inkscape:window-height="1001"
     inkscape:window-x="1911"
     inkscape:window-y="-9"
     inkscape:window-maximized="1"
     fit-margin-top="0"
     fit-margin-left="0"
     fit-margin-right="0"
     fit-margin-bottom="0" />
  <metadata
     id="metadata9590">
    <rdf:RDF>
      <cc:Work
         rdf:about="">
        <dc:format>image/svg+xml</dc:format>
        <dc:type
           rdf:resource="http://purl.org/dc/dcmitype/StillImage" />
        <dc:title></dc:title>
      </cc:Work>
    </rdf:RDF>
  </metadata>
  <g
     inkscape:label="Layer 1"
     inkscape:groupmode="layer"
     id="layer1"
     transform="translate(-54.413976,-163.2388)">
    <g
       id="g6163">
      <path
         inkscape:export-ydpi="248.46014"
         inkscape:export-xdpi="248.46014"
         inkscape:export-filename="D:\projects\_resources\hackendebug\export/hdpi\path6168.png"
         inkscape:connector-curvature="0"
         style="display:inline;opacity:0.969;fill:#009ee1;fill-opacity:1;fill-rule:nonzero;stroke:#009ee1;stroke-width:1.32700002;stroke-linecap:square;stroke-linejoin:round;stroke-miterlimit:4;stroke-dasharray:none;stroke-opacity:1;paint-order:markers stroke fill"
         d="M 102.78928,163.90242 C 76.116666,165.12431 55.110496,187.08763 55.077476,213.78827 55.077476,234.01681 67.090586,251.43827 84.371286,259.31108 V 254.1796 A 38.085903,25.117588 0 0 0 90.269116,256.26681 V 261.55848 C 92.356176,262.20473 94.502106,262.71715 96.696118,263.08758 V 257.60574 A 38.085903,25.117588 0 0 0 102.59394,258.16179 V 258.84753 C 103.42907,259.20795 104.26084,259.53942 105.08629,259.83919 105.08329,259.84019 105.08129,259.84118 105.07829,259.84218 104.25541,259.5431 103.42617,259.21299 102.59366,258.85361 V 263.72566 C 103.41668,263.76597 104.24421,263.78816 105.07725,263.78816 106.22499,263.78816 107.36257,263.74597 108.49099,263.66984 V 258.12288 A 38.085903,25.117588 0 0 0 114.38881,257.4578 V 262.91899 C 116.40028,262.54005 118.36802,262.03806 120.28664,261.42605 V 256.12094 A 38.085903,25.117588 0 0 0 126.18449,254.01202 V 259.12076 C 143.24888,251.16286 155.07729,233.85898 155.07729,213.78813 155.04429,187.08731 134.03783,165.1239 107.36497,163.90228 113.41935,166.51164 118.84236,171.28956 123.08699,177.75415 116.45251,179.80322 110.27973,183.6623 105.28395,188.88422 111.8376,185.38765 120.03672,184.911 128.09394,187.55818 128.09394,187.55818 135.83409,191.04627 136.41072,193.1527 131.04793,194.82653 119.77951,198.48797 115.73808,202.71024 120.31667,200.2769 133.51954,202.04608 139.19919,203.31075 139.69923,206.5753 139.9596,209.90619 139.9764,213.25327 139.9744,215.59547 139.77424,217.88319 139.40435,220.11178 A 50.000001,50.000001 0 0 0 105.07725,206.42629 50.000001,50.000001 0 0 0 70.750656,220.11228 C 70.380746,217.88355 70.180166,215.59566 70.178076,213.25327 70.194876,209.90619 70.455226,206.5753 70.955286,203.31075 76.634916,202.04608 89.837837,200.2769 94.416396,202.71024 90.374965,198.48797 79.106546,194.82653 73.743756,193.1527 74.320386,191.04627 82.060566,187.55818 82.060566,187.55818 90.117767,184.911 98.316887,185.38765 104.87054,188.88422 99.874777,183.6623 93.702016,179.80322 87.067486,177.75415 91.312117,171.28956 96.735125,166.51164 102.78953,163.90228 Z"
         id="path6168"
         inkscape:label="frame" />
      <path
         inkscape:export-ydpi="248.46014"
         inkscape:export-xdpi="248.46014"
         inkscape:export-filename="D:\projects\_resources\hackendebug\export/hdpi\path6168.png"
         inkscape:label="bg_light_blue"
         inkscape:connector-curvature="0"
         id="path5095"
         d="M 102.78954,163.90235 C 76.116924,165.12424 55.110738,187.08756 55.077718,213.7882 55.077718,234.01673 67.090837,251.4382 84.371538,259.311 V 259.15339 C 86.275239,260.03516 88.243622,260.8002 90.26937,261.43697 V 261.55841 C 92.35643,262.20466 94.502357,262.71708 96.696367,263.08752 V 262.98778 C 98.626547,263.31821 100.59387,263.53921 102.59368,263.63839 V 263.72572 C 103.4167,263.76602 104.24421,263.78825 105.07725,263.78825 106.22499,263.78825 107.36258,263.74603 108.491,263.66991 V 263.58051 C 110.49216,263.44368 112.46031,263.18728 114.38883,262.8188 V 262.91905 C 116.4003,262.54011 118.36804,262.03813 120.28666,261.42612 V 261.30675 C 122.31317,260.65047 124.28232,259.86779 126.18449,258.9658 V 259.12083 C 143.24888,251.16293 155.0773,233.85904 155.0773,213.7882 155.0443,187.08738 134.03783,165.12397 107.36497,163.90235 113.41935,166.51171 118.84238,171.28963 123.087,177.75422 116.45252,179.80329 110.27974,183.66237 105.28396,188.88429 111.83761,185.38772 120.03671,184.91109 128.09393,187.55827 128.09393,187.55827 135.83411,191.04635 136.41074,193.15277 131.04795,194.82661 119.77953,198.48804 115.7381,202.71032 120.31669,200.27697 133.51955,202.04614 139.1992,203.3108 139.69924,206.57536 139.95961,209.90627 139.97641,213.25335 139.9743,215.59555 139.77425,217.88325 139.40436,220.11185 A 50.000001,50.000001 0 0 0 105.07725,206.42638 50.000001,50.000001 0 0 0 70.750663,220.11236 C 70.380753,217.88362 70.180178,215.59574 70.178088,213.25335 70.194889,209.90627 70.455242,206.57536 70.955301,203.3108 76.634931,202.04614 89.837843,200.27697 94.416402,202.71032 90.374973,198.48804 79.106552,194.82661 73.743762,193.15277 74.320392,191.04635 82.060566,187.55827 82.060566,187.55827 90.117767,184.91109 98.316895,185.38772 104.87054,188.88429 99.874785,183.66237 93.702027,179.80329 87.067496,177.75422 91.312127,171.28963 96.735136,166.51171 102.78954,163.90235 Z"
         style="display:inline;opacity:0.95899999;fill:#009ee1;fill-opacity:1;fill-rule:nonzero;stroke:none;stroke-width:0.88575596;stroke-linecap:round;stroke-linejoin:round;stroke-miterlimit:4;stroke-dasharray:none;stroke-opacity:1" />
      <path
         inkscape:export-ydpi="248.46014"
         inkscape:export-xdpi="248.46014"
         inkscape:export-filename="D:\projects\_resources\hackendebug\export/hdpi\path6168.png"
         inkscape:label="foreground_dark_blue"
         id="path5082"
         d="M 102.78928,163.90242 C 76.116666,165.12431 55.110496,187.08763 55.077476,213.78827 55.077476,234.01681 67.090586,251.43827 84.371286,259.31108 V 254.1796 A 38.085903,25.117588 0 0 0 90.269116,256.26681 V 261.55848 C 92.356176,262.20473 94.502106,262.71715 96.696118,263.08758 V 257.60574 A 38.085903,25.117588 0 0 0 102.59394,258.16179 V 258.84753 C 103.42907,259.20795 104.26084,259.53942 105.08629,259.83919 105.08329,259.84019 105.08129,259.84118 105.07829,259.84218 104.25541,259.5431 103.42617,259.21299 102.59366,258.85361 V 263.72566 C 103.41668,263.76597 104.24421,263.78816 105.07725,263.78816 106.22499,263.78816 107.36257,263.74597 108.49099,263.66984 V 258.12288 A 38.085903,25.117588 0 0 0 114.38881,257.4578 V 262.91899 C 116.40028,262.54005 118.36802,262.03806 120.28664,261.42605 V 256.12094 A 38.085903,25.117588 0 0 0 126.18449,254.01202 V 259.12076 C 143.24888,251.16286 155.07729,233.85898 155.07729,213.78813 155.04429,187.08731 134.03783,165.1239 107.36497,163.90228 113.41935,166.51164 118.84236,171.28956 123.08699,177.75415 116.45251,179.80322 110.27973,183.6623 105.28395,188.88422 111.8376,185.38765 120.03672,184.911 128.09394,187.55818 128.09394,187.55818 135.83409,191.04627 136.41072,193.1527 131.04793,194.82653 119.77951,198.48797 115.73808,202.71024 120.31667,200.2769 133.51954,202.04608 139.19919,203.31075 139.69923,206.5753 139.9596,209.90619 139.9764,213.25327 139.9744,215.59547 139.77424,217.88319 139.40435,220.11178 A 50.000001,50.000001 0 0 0 105.07725,206.42629 50.000001,50.000001 0 0 0 70.750656,220.11228 C 70.380746,217.88355 70.180166,215.59566 70.178076,213.25327 70.194876,209.90619 70.455226,206.5753 70.955286,203.31075 76.634916,202.04608 89.837837,200.2769 94.416396,202.71024 90.374965,198.48797 79.106546,194.82653 73.743756,193.1527 74.320386,191.04627 82.060566,187.55818 82.060566,187.55818 90.117767,184.911 98.316887,185.38765 104.87054,188.88422 99.874777,183.6623 93.702016,179.80322 87.067486,177.75415 91.312117,171.28956 96.735125,166.51164 102.78953,163.90228 Z"
         style="display:inline;opacity:0.969;fill:#061341;fill-opacity:1;fill-rule:nonzero;stroke:url(#linearGradient6166);stroke-width:1.32700002;stroke-linecap:round;stroke-linejoin:round;stroke-miterlimit:4;stroke-dasharray:none;stroke-opacity:0"
         inkscape:connector-curvature="0" />
      <path
         inkscape:export-ydpi="248.46014"
         inkscape:export-xdpi="248.46014"
         inkscape:export-filename="D:\projects\_resources\hackendebug\export/hdpi\path6168.png"
         inkscape:label="right_eye"
         style="display:inline;opacity:1;fill:#009ee1;fill-opacity:1;fill-rule:nonzero;stroke:none;stroke-width:0.13758101;stroke-linecap:round;stroke-linejoin:round;stroke-miterlimit:4;stroke-dasharray:none;stroke-opacity:1"
         d="M 88.851436,217.19898 A 14.967179,14.967179 0 0 0 88.352938,217.21658 C 87.669736,218.75451 86.916337,220.40139 86.393537,221.62703 A 10.835136,10.835136 0 0 0 84.156537,222.41141 C 82.982737,221.78504 81.368136,220.97628 79.875136,220.20778 A 14.967179,14.967179 0 0 0 77.931636,221.95762 C 78.534936,223.52556 79.165236,225.21829 79.661236,226.45202 A 10.835136,10.835136 0 0 0 78.637936,228.58711 C 77.365536,228.97387 75.651736,229.54356 74.052036,230.05609 A 14.967179,14.967179 0 0 0 73.884136,232.16632 14.967179,14.967179 0 0 0 73.902136,232.66486 C 75.440036,233.34797 77.086836,234.10127 78.312436,234.62401 A 10.835136,10.835136 0 0 0 79.096936,236.861 C 78.470636,238.03478 77.661736,239.6493 76.893236,241.14237 A 14.967179,14.967179 0 0 0 78.643036,243.08589 C 80.210936,242.48255 81.903637,241.85227 83.137436,241.3563 A 10.835136,10.835136 0 0 0 85.272537,242.37964 C 85.659336,243.65191 86.229138,245.36575 86.741736,246.9655 A 14.967179,14.967179 0 0 0 88.851735,247.13344 14.967179,14.967179 0 0 0 89.350136,247.11584 C 90.033237,245.5779 90.786736,243.93104 91.309437,242.7054 A 10.835136,10.835136 0 0 0 93.546436,241.92085 C 94.720236,242.54723 96.334737,243.35613 97.827836,244.12466 A 14.967179,14.967179 0 0 0 99.771336,242.37483 C 99.168038,240.80684 98.537737,239.11415 98.041736,237.88042 A 10.835136,10.835136 0 0 0 99.065036,235.7455 C 100.33734,235.35865 102.05124,234.78872 103.65094,234.27617 A 14.967179,14.967179 0 0 0 103.81894,232.16629 14.967179,14.967179 0 0 0 103.80094,231.66777 C 102.26294,230.98462 100.61614,230.23121 99.390436,229.70843 A 10.835136,10.835136 0 0 0 98.606036,227.47143 C 99.232438,226.29767 100.04124,224.6831 100.80974,223.19007 A 14.967179,14.967179 0 0 0 99.059837,221.24655 C 97.491937,221.8499 95.799135,222.48014 94.565436,222.97613 A 10.835136,10.835136 0 0 0 92.430537,221.9528 C 92.043637,220.68051 91.473738,218.9667 90.961237,217.36694 A 14.967179,14.967179 0 0 0 88.851336,217.19898 Z M 88.851436,225.4631 A 6.7030931,6.7030931 0 0 1 95.554435,232.16629 6.7030931,6.7030931 0 0 1 88.851436,238.86931 6.7030931,6.7030931 0 0 1 82.148236,232.16629 6.7030931,6.7030931 0 0 1 88.851436,225.4631 Z"
         id="path5087"
         inkscape:connector-curvature="0" />
      <path
         inkscape:export-ydpi="248.46014"
         inkscape:export-xdpi="248.46014"
         inkscape:export-filename="D:\projects\_resources\hackendebug\export/hdpi\path6168.png"
         inkscape:label="left_eye"
         inkscape:connector-curvature="0"
         id="path5089"
         d="M 121.70717,217.19784 A 14.967179,14.967179 0 0 1 122.20567,217.21544 C 122.88887,218.75337 123.64227,220.40025 124.16507,221.62588 A 10.835136,10.835136 0 0 1 126.40207,222.41026 C 127.57587,221.7839 129.19047,220.97514 130.68347,220.20664 A 14.967179,14.967179 0 0 1 132.62697,221.95646 C 132.02367,223.5244 131.39337,225.21714 130.89737,226.45088 A 10.835136,10.835136 0 0 1 131.92067,228.58598 C 133.19307,228.97273 134.90687,229.54242 136.50657,230.05493 A 14.967179,14.967179 0 0 1 136.67447,232.16517 14.967179,14.967179 0 0 1 136.65647,232.66371 C 135.11857,233.34682 133.47177,234.10014 132.24617,234.62285 A 10.835136,10.835136 0 0 1 131.46167,236.85985 C 132.08797,238.03365 132.89687,239.64815 133.66537,241.14123 A 14.967179,14.967179 0 0 1 131.91557,243.08476 C 130.34767,242.48142 128.65497,241.85113 127.42117,241.35516 A 10.835136,10.835136 0 0 1 125.28607,242.3785 C 124.89927,243.65077 124.32947,245.3646 123.81687,246.96434 A 14.967179,14.967179 0 0 1 121.70687,247.1323 14.967179,14.967179 0 0 1 121.20847,247.1147 C 120.52537,245.57677 119.77187,243.9299 119.24917,242.70426 A 10.835136,10.835136 0 0 1 117.01217,241.91971 C 115.83837,242.54609 114.22387,243.35499 112.73077,244.12352 A 14.967179,14.967179 0 0 1 110.78727,242.37369 C 111.39057,240.8057 112.02087,239.113 112.51687,237.87926 A 10.835136,10.835136 0 0 1 111.49357,235.74435 C 110.22127,235.3575 108.50737,234.78758 106.90767,234.27504 A 14.967179,14.967179 0 0 1 106.73967,232.16516 14.967179,14.967179 0 0 1 106.75767,231.66663 C 108.29567,230.98348 109.94247,230.23005 111.16817,229.7073 A 10.835136,10.835136 0 0 1 111.95257,227.47029 C 111.32617,226.29652 110.51737,224.68196 109.74887,223.18893 A 14.967179,14.967179 0 0 1 111.49877,221.24539 C 113.06667,221.84876 114.75947,222.479 115.99317,222.97499 A 10.835136,10.835136 0 0 1 118.12807,221.95164 C 118.51497,220.67937 119.08487,218.96556 119.59737,217.3658 A 14.967179,14.967179 0 0 1 121.70727,217.19784 Z M 121.70717,225.46196 A 6.7030931,6.7030931 0 0 0 115.00417,232.16516 6.7030931,6.7030931 0 0 0 121.70717,238.86817 6.7030931,6.7030931 0 0 0 128.41037,232.16516 6.7030931,6.7030931 0 0 0 121.70717,225.46196 Z"
         style="display:inline;opacity:1;fill:#009ee1;fill-opacity:1;fill-rule:nonzero;stroke:none;stroke-width:0.13758101;stroke-linecap:round;stroke-linejoin:round;stroke-miterlimit:4;stroke-dasharray:none;stroke-opacity:1" />
    </g>
  </g>
</svg>
